<svg xmlns="http://www.w3.org/2000/svg" xmlns:xlink="http://www.w3.org/1999/xlink" width="22" height="25" viewBox="0 0 22 25"><defs><path id="8ka9a" d="M592.06 2168.4a2.04 2.04 0 1 1 0 4.08 2.04 2.04 0 0 1 0-4.07zm4.44 8.32a1.3 1.3 0 1 1 0 2.61 1.3 1.3 0 0 1 0-2.6zm9.38 1.52c-.7.77-1.88.8-1.88.8s.77 1.46.42 1.87c-.35.4-1.31.23-1.31.23s.9.64.9 1.14c0 .5-1.52 1.17-1.52 1.17s.28 2.77-2 2.58c-2.27-.2-2.66-.83-2.66-.83l-.67 2.8h-8.8l.3-6.1s-5.4-5.85-4.56-11.09c.43-2.1.16-6.47 7.42-7.63 7.26-1.16 13.8 2.52 12.16 10.55 0 1.47 2.9 3.74 2.2 4.51zm-14.12-2.76l2.02-.18.65-.65-.1-1.05c.17-.1.33-.2.48-.31l.79.45.9-.24 1.01-1.75-.24-.9-1.01-.58c-.01-.2-.03-.38-.07-.57l.8-.69v-.92l-1.32-1.54h-.92l-.66.56c-.24-.11-.5-.2-.76-.28l-.06-.78-.65-.65-2.03.16-.65.66.08 1.02c-.2.12-.38.24-.56.38l-.85-.39-.9.24-.84 1.84-.03.13.26.77 1 .45c0 .21.04.43.1.63l-.76.64v.92l1.3 1.55s.77.09.81.07l.13-.07.72-.6c.2.08.4.16.63.22l.07.81zm8.23 3.39l-.15-.58-.65-.37c0-.13-.02-.25-.04-.37l.51-.44v-.6l-.84-.98h-.6l-.42.36a2.83 2.83 0 0 0-.48-.18l-.04-.5-.42-.42-1.3.1-.42.42.05.66c-.12.08-.25.16-.36.25l-.54-.25-.58.15-.54 1.18-.02.08.17.5.63.28c.01.14.03.28.07.41l-.49.41v.6l.85.99s.49.05.51.04l.08-.04.46-.4c.13.06.27.11.4.15l.05.52.42.42 1.3-.12.42-.42-.06-.67c.1-.06.2-.12.3-.2l.5.3.58-.16z"/></defs><g><g transform="translate(-584 -2163)"><use fill="#fff" xlink:href="#8ka9a"/></g></g></svg>