<svg xmlns="http://www.w3.org/2000/svg" xmlns:xlink="http://www.w3.org/1999/xlink" width="19" height="25" viewBox="0 0 19 25"><defs><path id="a3k9a" d="M247.83 2270.37c0 3.13-3.16 6.2-3.16 9.38h-6.34c0-3.08-3.16-6.25-3.16-9.38a6.3 6.3 0 0 1 6.33-6.25 6.3 6.3 0 0 1 6.33 6.25zm-3.16 13.29c0 .43-.36.78-.8.78h-.14a2.36 2.36 0 0 1-4.46 0h-.15a.79.79 0 0 1-.79-.78c0-.44.36-.79.8-.79h4.74c.44 0 .8.35.8.79zm0-2.35c0 .43-.36.78-.8.78h-4.75a.79.79 0 0 1-.79-.78c0-.43.36-.78.8-.78h4.74c.44 0 .8.35.8.78zm-11-16.3l1.42.81c-.3.43-.57.87-.8 1.35l-1.41-.8zm7.83-2.45c-.27 0-.53.05-.8.08V2261h1.6v1.64c-.27-.03-.53-.08-.8-.08zm-4.61 1.5l-.83-1.41 1.38-.79.82 1.4c-.49.22-.94.49-1.37.8zm11.81 3.11a7.76 7.76 0 0 0-.8-1.35l1.43-.81.8 1.35zm-2.59-3.12a8 8 0 0 0-1.36-.78l.81-1.4 1.37.78zm-12.44 7.1H232v-1.56h1.66c-.02.26-.08.52-.08.78 0 .27.06.53.09.79zm17.33-1.56v1.57h-1.67c.03-.26.09-.52.09-.79 0-.26-.06-.52-.08-.78zm-2.31 3.98l1.43.81-.79 1.36-1.3-.74c.24-.47.46-.95.66-1.43zm-14.38 0c.2.49.41.96.64 1.44l-1.28.73-.8-1.36z"/></defs><g><g transform="translate(-232 -2261)"><use fill="#fff" xlink:href="#a3k9a"/></g></g></svg>