<svg xmlns="http://www.w3.org/2000/svg" xmlns:xlink="http://www.w3.org/1999/xlink" width="23" height="21" viewBox="0 0 23 21"><defs><path id="u7vva" d="M774.98 2265.11c.04.23 0 .6-.04.83l-1.73 9.22c-.04.23-.07.6-.12.83-.24 1.14-1.42 2.01-2.58 2.01h-8.18c-.47 0-.91-.15-1.28-.4-.19-.13-.47-.36-.66-.48-.7-.44-1.5-.95-2.74-1.05a2.1 2.1 0 0 1-.76-.22l-1.17-.68a.8.8 0 0 1-.36-.63v-8.27c0-.23.17-.48.38-.56l2.73-1.01c.2-.08.54-.23.74-.34.96-.55 3.65-2.18 5.04-4.22 1.08-1.56 2.14-3.14 2.87-3.14.44 0 .76.58.9 2.09.15 1.82-.15 2.88-.67 3.68-.13.19-.07.33.16.33h5.16c1.16 0 2.12.87 2.31 2.01zm-20.14.5v9.66c0 .38-.3.7-.67.7h-1.5a.69.69 0 0 1-.67-.7v-9.66c0-.39.3-.7.68-.7h1.49c.37 0 .67.31.67.7z"/></defs><g><g transform="translate(-752 -2257)"><use fill="#fff" xlink:href="#u7vva"/></g></g></svg>