<svg xmlns="http://www.w3.org/2000/svg" xmlns:xlink="http://www.w3.org/1999/xlink" width="23" height="21" viewBox="0 0 23 21"><defs><path id="f6caa" d="M519.01 2313.42v14.75c0 .78-.63 1.43-1.4 1.43h-20.22c-.77 0-1.4-.65-1.4-1.43v-14.75c0-.78.63-1.42 1.4-1.42h20.22c.77 0 1.4.64 1.4 1.42zm-1.75.58h-19.52v13.13h19.52zm-4.48 19h-10.52l2.65-2.73h5.22zm-6.36-14.9a.94.94 0 0 1 .88 1.28l2.31 2a.93.93 0 0 1 1.1-.06l2.36-2.16a.94.94 0 0 1 .87-1.3c.52 0 .94.42.94.95 0 .52-.42.95-.94.95a.92.92 0 0 1-.44-.11l-2.4 2.2a.95.95 0 0 1-.9 1.23.95.95 0 0 1-.92-1.13l-2.4-2.07a.92.92 0 0 1-1-.05c-.98.76-3.07 2.46-4.26 3.44a.94.94 0 0 1-.9 1.23.94.94 0 0 1-.93-.95c0-.53.42-.96.93-.96.2 0 .39.07.54.17l4.28-3.38a.94.94 0 0 1 .88-1.28z"/></defs><g><g transform="translate(-496 -2312)"><use fill="#fff" xlink:href="#f6caa"/></g></g></svg>